<svg width="57" height="42" viewBox="0 0 57 42" fill="none" xmlns="http://www.w3.org/2000/svg">
<path d="M14.2916 31.3335C16.3153 31.3335 18.2855 31.5591 20.2023 32.0103C22.1174 32.4633 24.0222 33.1418 25.9166 34.046V8.60016C24.1514 7.56683 22.2785 6.79183 20.2979 6.27516C18.3173 5.7585 16.3153 5.50016 14.2916 5.50016C12.7416 5.50016 11.2028 5.65086 9.67523 5.95225C8.1459 6.25364 6.67081 6.70572 5.24998 7.3085V32.8835C6.75692 32.3668 8.25353 31.9793 9.73981 31.721C11.2244 31.4627 12.7416 31.3335 14.2916 31.3335ZM31.0833 34.046C32.9778 33.1418 34.8834 32.4633 36.8002 32.0103C38.7153 31.5591 40.6847 31.3335 42.7083 31.3335C44.2583 31.3335 45.7765 31.4627 47.2627 31.721C48.7473 31.9793 50.243 32.3668 51.75 32.8835V7.3085C50.3291 6.70572 48.8549 6.25364 47.3273 5.95225C45.798 5.65086 44.2583 5.50016 42.7083 5.50016C40.6847 5.50016 38.6826 5.7585 36.7021 6.27516C34.7215 6.79183 32.8486 7.56683 31.0833 8.60016V34.046ZM28.5 41.6668C26.4333 40.0307 24.1944 38.7606 21.7833 37.8564C19.3722 36.9522 16.875 36.5002 14.2916 36.5002C12.4833 36.5002 10.7077 36.737 8.96481 37.2106C7.2202 37.6842 5.55137 38.3515 3.95831 39.2127C3.05415 39.6863 2.1827 39.6647 1.34398 39.1481C0.503535 38.6314 0.083313 37.8779 0.083313 36.8877V5.7585C0.083313 5.28488 0.202146 4.8328 0.439813 4.40225C0.675757 3.97169 1.03054 3.64877 1.50415 3.4335C3.4847 2.40016 5.55137 1.62516 7.70415 1.1085C9.85692 0.59183 12.0528 0.333496 14.2916 0.333496C16.7889 0.333496 19.2327 0.656413 21.6231 1.30225C24.0119 1.94808 26.3041 2.91683 28.5 4.2085C30.6958 2.91683 32.989 1.94808 35.3794 1.30225C37.7681 0.656413 40.2111 0.333496 42.7083 0.333496C44.9472 0.333496 47.143 0.59183 49.2958 1.1085C51.4486 1.62516 53.5153 2.40016 55.4958 3.4335C55.9694 3.64877 56.3251 3.97169 56.5627 4.40225C56.7987 4.8328 56.9166 5.28488 56.9166 5.7585V36.8877C56.9166 37.8779 56.4973 38.6314 55.6586 39.1481C54.8181 39.6647 53.9458 39.6863 53.0416 39.2127C51.4486 38.3515 49.7798 37.6842 48.0351 37.2106C46.2923 36.737 44.5166 36.5002 42.7083 36.5002C40.125 36.5002 37.6278 36.9522 35.2166 37.8564C32.8055 38.7606 30.5666 40.0307 28.5 41.6668Z" fill="#3394C6"/>
</svg>
