<svg width="48" height="55" viewBox="0 0 48 55" fill="none" xmlns="http://www.w3.org/2000/svg">
<path d="M24.1666 54.4165L16.4166 46.6665H6.08329C4.66246 46.6665 3.44571 46.161 2.43304 45.1501C1.4221 44.1374 0.916626 42.9207 0.916626 41.4998V5.33317C0.916626 3.91234 1.4221 2.69559 2.43304 1.68292C3.44571 0.671976 4.66246 0.166504 6.08329 0.166504H42.25C43.6708 0.166504 44.8875 0.671976 45.9002 1.68292C46.9112 2.69559 47.4166 3.91234 47.4166 5.33317V41.4998C47.4166 42.9207 46.9112 44.1374 45.9002 45.1501C44.8875 46.161 43.6708 46.6665 42.25 46.6665H31.9166L24.1666 54.4165ZM6.08329 41.4998H18.4833L24.1666 47.1832L29.85 41.4998H42.25V5.33317H6.08329V41.4998ZM24.0375 38.3998C24.9416 38.3998 25.7063 38.0881 26.3315 37.4647C26.9549 36.8395 27.2666 36.0748 27.2666 35.1707C27.2666 34.2665 26.9549 33.5018 26.3315 32.8767C25.7063 32.2532 24.9416 31.9415 24.0375 31.9415C23.1333 31.9415 22.3686 32.2532 21.7435 32.8767C21.12 33.5018 20.8083 34.2665 20.8083 35.1707C20.8083 36.0748 21.12 36.8395 21.7435 37.4647C22.3686 38.0881 23.1333 38.3998 24.0375 38.3998ZM26.4916 28.454C26.4916 26.904 26.6638 25.763 27.0083 25.0311C27.3527 24.2991 28.0847 23.3734 29.2041 22.254C30.7111 20.7471 31.7771 19.4873 32.4023 18.4746C33.0257 17.4636 33.3375 16.3123 33.3375 15.0207C33.3375 12.7387 32.5625 10.8977 31.0125 9.4975C29.4625 8.09906 27.3743 7.39984 24.7479 7.39984C22.3798 7.39984 20.3674 7.98109 18.7106 9.14359C17.0521 10.3061 15.9 11.9207 15.2541 13.9873L19.5166 15.6665C19.818 14.504 20.4208 13.5671 21.325 12.8558C22.2291 12.1463 23.284 11.7915 24.4895 11.7915C25.652 11.7915 26.6208 12.1032 27.3958 12.7267C28.1708 13.3518 28.5583 14.1811 28.5583 15.2144C28.5583 15.9464 28.3215 16.7214 27.8479 17.5394C27.3743 18.3575 26.5777 19.2616 25.4583 20.2519C24.0375 21.5005 23.0584 22.6949 22.521 23.835C21.982 24.9768 21.7125 26.5165 21.7125 28.454H26.4916Z" fill="#3394C6"/>
</svg>
