<svg width="48" height="48" viewBox="0 0 48 48" fill="none" xmlns="http://www.w3.org/2000/svg">
<path d="M17.375 35.625L35.4583 24L17.375 12.375V35.625ZM5.74999 47.25C4.32916 47.25 3.11241 46.7445 2.09974 45.7336C1.0888 44.7209 0.583328 43.5042 0.583328 42.0833V5.91667C0.583328 4.49583 1.0888 3.27908 2.09974 2.26642C3.11241 1.25547 4.32916 0.75 5.74999 0.75H41.9167C43.3375 0.75 44.5542 1.25547 45.5669 2.26642C46.5779 3.27908 47.0833 4.49583 47.0833 5.91667V42.0833C47.0833 43.5042 46.5779 44.7209 45.5669 45.7336C44.5542 46.7445 43.3375 47.25 41.9167 47.25H5.74999ZM5.74999 42.0833H41.9167V5.91667H5.74999V42.0833Z" fill="#3394C6"/>
</svg>
